<mxfile host="app.diagrams.net" agent="Mozilla/5.0 (Windows NT 10.0; Win64; x64) AppleWebKit/537.36 (KHTML, like Gecko) Chrome/131.0.0.0 Safari/537.36" version="26.0.5">
  <diagram name="Page-1" id="VARvaUbyjAahVUWHVkAC">
    <mxGraphModel dx="2389" dy="1987" grid="1" gridSize="10" guides="1" tooltips="1" connect="1" arrows="1" fold="1" page="1" pageScale="1" pageWidth="827" pageHeight="1169" math="0" shadow="0">
      <root>
        <mxCell id="0" />
        <mxCell id="1" parent="0" />
        <mxCell id="Qj9OVGJg4EnvaJ57wK5q-87" value="" style="rounded=1;whiteSpace=wrap;html=1;fillColor=none;" parent="1" vertex="1">
          <mxGeometry x="-40" y="610" width="460" height="310" as="geometry" />
        </mxCell>
        <mxCell id="Qj9OVGJg4EnvaJ57wK5q-2" value="" style="rounded=1;whiteSpace=wrap;html=1;fillColor=none;" parent="1" vertex="1">
          <mxGeometry x="-109" y="530" width="580" height="400" as="geometry" />
        </mxCell>
        <mxCell id="Qj9OVGJg4EnvaJ57wK5q-64" value="" style="rounded=1;whiteSpace=wrap;html=1;fillColor=none;" parent="1" vertex="1">
          <mxGeometry x="-180" y="180" width="1550" height="990" as="geometry" />
        </mxCell>
        <mxCell id="Qj9OVGJg4EnvaJ57wK5q-1" value="" style="rounded=1;whiteSpace=wrap;html=1;fillColor=none;" parent="1" vertex="1">
          <mxGeometry x="-120" y="260" width="1370" height="740" as="geometry" />
        </mxCell>
        <mxCell id="Qj9OVGJg4EnvaJ57wK5q-30" value="" style="rounded=1;whiteSpace=wrap;html=1;fillColor=none;" parent="1" vertex="1">
          <mxGeometry x="690" y="610" width="460" height="310" as="geometry" />
        </mxCell>
        <mxCell id="Qj9OVGJg4EnvaJ57wK5q-7" value="INTERNAL SPECIFICÂ &#xa;IP RANGE (Eg. 10.72.25.0/16)" style="group;labelPosition=center;verticalLabelPosition=bottom;align=center;verticalAlign=top;fontColor=#1BAB66;fontStyle=1" parent="1" vertex="1" connectable="0">
          <mxGeometry x="-50" y="-130" width="350" height="230" as="geometry" />
        </mxCell>
        <mxCell id="Qj9OVGJg4EnvaJ57wK5q-4" value="" style="ellipse;shape=cloud;whiteSpace=wrap;html=1;" parent="Qj9OVGJg4EnvaJ57wK5q-7" vertex="1">
          <mxGeometry x="-13.461538461538463" width="350" height="229.99999999999997" as="geometry" />
        </mxCell>
        <mxCell id="Qj9OVGJg4EnvaJ57wK5q-5" value="Secret Receiver" style="shadow=0;dashed=0;html=1;strokeColor=none;fillColor=#005700;labelPosition=center;verticalLabelPosition=top;verticalAlign=bottom;align=center;outlineConnect=0;shape=mxgraph.veeam.2d.group;" parent="Qj9OVGJg4EnvaJ57wK5q-7" vertex="1">
          <mxGeometry x="200" y="120" width="60.23" height="64.96" as="geometry" />
        </mxCell>
        <mxCell id="Qj9OVGJg4EnvaJ57wK5q-114" style="rounded=0;orthogonalLoop=1;jettySize=auto;html=1;edgeStyle=orthogonalEdgeStyle;strokeColor=#97D077;strokeWidth=3;" parent="Qj9OVGJg4EnvaJ57wK5q-7" source="Qj9OVGJg4EnvaJ57wK5q-6" target="Qj9OVGJg4EnvaJ57wK5q-5" edge="1">
          <mxGeometry relative="1" as="geometry">
            <Array as="points">
              <mxPoint x="145" y="170" />
            </Array>
          </mxGeometry>
        </mxCell>
        <mxCell id="Qj9OVGJg4EnvaJ57wK5q-115" value="Share URL+PIN&amp;nbsp;&lt;div&gt;&lt;span style=&quot;background-color: light-dark(#ffffff, var(--ge-dark-color, #121212)); color: light-dark(rgb(0, 0, 0), rgb(255, 255, 255));&quot;&gt;Via Teams&lt;/span&gt;&lt;/div&gt;" style="edgeLabel;html=1;align=center;verticalAlign=middle;resizable=0;points=[];fontSize=9;" parent="Qj9OVGJg4EnvaJ57wK5q-114" vertex="1" connectable="0">
          <mxGeometry x="-0.5379" y="3" relative="1" as="geometry">
            <mxPoint as="offset" />
          </mxGeometry>
        </mxCell>
        <mxCell id="Qj9OVGJg4EnvaJ57wK5q-6" value="Secret Owner" style="shadow=0;dashed=0;html=1;strokeColor=none;fillColor=#97D077;labelPosition=center;verticalLabelPosition=top;verticalAlign=bottom;align=center;outlineConnect=0;shape=mxgraph.veeam.2d.group;" parent="Qj9OVGJg4EnvaJ57wK5q-7" vertex="1">
          <mxGeometry x="110" y="50" width="69.85" height="65.51" as="geometry" />
        </mxCell>
        <mxCell id="Qj9OVGJg4EnvaJ57wK5q-148" value="4" style="ellipse;whiteSpace=wrap;html=1;aspect=fixed;rotation=0;gradientColor=#223548;strokeColor=none;gradientDirection=east;fillColor=#5b738b;rounded=0;pointerEvents=0;fontFamily=Helvetica;fontSize=16;fontColor=#FFFFFF;spacingTop=4;spacingBottom=4;spacingLeft=4;spacingRight=4;points=[];fontStyle=1" parent="Qj9OVGJg4EnvaJ57wK5q-7" vertex="1">
          <mxGeometry x="160" y="150" width="17.48" height="17.48" as="geometry" />
        </mxCell>
        <mxCell id="Qj9OVGJg4EnvaJ57wK5q-8" value="" style="group;fontColor=#FF3333;labelPosition=center;verticalLabelPosition=top;align=center;verticalAlign=bottom;" parent="1" vertex="1" connectable="0">
          <mxGeometry x="435" y="-220" width="260" height="180" as="geometry" />
        </mxCell>
        <mxCell id="Qj9OVGJg4EnvaJ57wK5q-9" value="&lt;blockquote style=&quot;margin: 0 0 0 40px; border: none; padding: 0px;&quot;&gt;&lt;blockquote style=&quot;margin: 0 0 0 40px; border: none; padding: 0px;&quot;&gt;&lt;font style=&quot;color: rgb(255, 51, 51);&quot;&gt;&lt;span style=&quot;font-weight: 700; text-wrap-mode: nowrap;&quot;&gt;OTHER&amp;nbsp;&lt;/span&gt;&lt;span style=&quot;font-weight: 700; text-wrap-mode: nowrap;&quot;&gt;IP RANGES&lt;/span&gt;&lt;/font&gt;&lt;/blockquote&gt;&lt;/blockquote&gt;" style="ellipse;shape=cloud;whiteSpace=wrap;html=1;labelPosition=center;verticalLabelPosition=top;align=center;verticalAlign=bottom;" parent="Qj9OVGJg4EnvaJ57wK5q-8" vertex="1">
          <mxGeometry width="260" height="180" as="geometry" />
        </mxCell>
        <mxCell id="Qj9OVGJg4EnvaJ57wK5q-10" value="" style="shadow=0;dashed=0;html=1;strokeColor=none;fillColor=#4495D1;labelPosition=center;verticalLabelPosition=bottom;verticalAlign=top;align=center;outlineConnect=0;shape=mxgraph.veeam.2d.group;" parent="Qj9OVGJg4EnvaJ57wK5q-8" vertex="1">
          <mxGeometry x="153.6" y="70" width="53.6" height="60.4" as="geometry" />
        </mxCell>
        <mxCell id="Qj9OVGJg4EnvaJ57wK5q-11" value="" style="shadow=0;dashed=0;html=1;strokeColor=none;fillColor=#4495D1;labelPosition=center;verticalLabelPosition=bottom;verticalAlign=top;align=center;outlineConnect=0;shape=mxgraph.veeam.2d.group;" parent="Qj9OVGJg4EnvaJ57wK5q-8" vertex="1">
          <mxGeometry x="100" y="50" width="53.6" height="60.4" as="geometry" />
        </mxCell>
        <mxCell id="Qj9OVGJg4EnvaJ57wK5q-12" value="" style="group;fontColor=#FF3333;" parent="1" vertex="1" connectable="0">
          <mxGeometry x="800" y="-140" width="260" height="180" as="geometry" />
        </mxCell>
        <mxCell id="Qj9OVGJg4EnvaJ57wK5q-13" value="&lt;font style=&quot;color: rgb(255, 51, 51);&quot;&gt;&lt;span style=&quot;font-weight: 700; text-wrap-mode: nowrap;&quot;&gt;INTERNET&lt;/span&gt;&lt;br&gt;&lt;/font&gt;" style="ellipse;shape=cloud;whiteSpace=wrap;html=1;labelPosition=center;verticalLabelPosition=bottom;align=center;verticalAlign=top;" parent="Qj9OVGJg4EnvaJ57wK5q-12" vertex="1">
          <mxGeometry width="260" height="180" as="geometry" />
        </mxCell>
        <mxCell id="Qj9OVGJg4EnvaJ57wK5q-15" value="" style="shadow=0;dashed=0;html=1;strokeColor=none;fillColor=#4495D1;labelPosition=center;verticalLabelPosition=bottom;verticalAlign=top;align=center;outlineConnect=0;shape=mxgraph.veeam.2d.group;" parent="Qj9OVGJg4EnvaJ57wK5q-12" vertex="1">
          <mxGeometry x="60" y="40" width="53.6" height="60.4" as="geometry" />
        </mxCell>
        <mxCell id="Qj9OVGJg4EnvaJ57wK5q-17" value="" style="points=[];aspect=fixed;html=1;align=center;shadow=0;dashed=0;fillColor=#FF6A00;strokeColor=none;shape=mxgraph.alibaba_cloud.uis_ultimate_internet_service;" parent="Qj9OVGJg4EnvaJ57wK5q-12" vertex="1">
          <mxGeometry x="190" y="50" width="24.9" height="24.49" as="geometry" />
        </mxCell>
        <mxCell id="Qj9OVGJg4EnvaJ57wK5q-18" value="" style="shape=image;html=1;verticalAlign=top;verticalLabelPosition=bottom;labelBackgroundColor=#ffffff;imageAspect=0;aspect=fixed;image=https://cdn0.iconfinder.com/data/icons/kameleon-free-pack/110/Hacker-128.png" parent="Qj9OVGJg4EnvaJ57wK5q-12" vertex="1">
          <mxGeometry x="120" y="70" width="88" height="88" as="geometry" />
        </mxCell>
        <mxCell id="Qj9OVGJg4EnvaJ57wK5q-19" value="&lt;b&gt;&lt;font style=&quot;font-size: 15px;&quot;&gt;Azure Firewall&lt;/font&gt;&lt;/b&gt;" style="image;sketch=0;aspect=fixed;html=1;points=[];align=left;fontSize=12;image=img/lib/mscae/Azure_Firewall.svg;labelPosition=right;verticalLabelPosition=middle;verticalAlign=middle;" parent="1" vertex="1">
          <mxGeometry x="490" y="264" width="110" height="110" as="geometry" />
        </mxCell>
        <mxCell id="Qj9OVGJg4EnvaJ57wK5q-21" style="edgeStyle=orthogonalEdgeStyle;rounded=0;orthogonalLoop=1;jettySize=auto;html=1;strokeColor=#97D077;strokeWidth=3;fontSize=9;" parent="1" edge="1">
          <mxGeometry relative="1" as="geometry">
            <Array as="points">
              <mxPoint x="172" y="-47" />
              <mxPoint x="547" y="-47" />
            </Array>
            <mxPoint x="172" y="-50" as="sourcePoint" />
            <mxPoint x="547" y="264" as="targetPoint" />
          </mxGeometry>
        </mxCell>
        <mxCell id="Qj9OVGJg4EnvaJ57wK5q-22" value="443" style="edgeLabel;html=1;align=center;verticalAlign=middle;resizable=0;points=[];fontSize=14;" parent="Qj9OVGJg4EnvaJ57wK5q-21" vertex="1" connectable="0">
          <mxGeometry x="0.533" y="3" relative="1" as="geometry">
            <mxPoint as="offset" />
          </mxGeometry>
        </mxCell>
        <mxCell id="Qj9OVGJg4EnvaJ57wK5q-23" style="edgeStyle=orthogonalEdgeStyle;rounded=0;orthogonalLoop=1;jettySize=auto;html=1;entryX=0.685;entryY=-0.02;entryDx=0;entryDy=0;entryPerimeter=0;fillColor=#f8cecc;strokeColor=#FF0000;" parent="1" edge="1">
          <mxGeometry relative="1" as="geometry">
            <mxPoint x="576" y="-40" as="sourcePoint" />
            <mxPoint x="576.3500000000001" y="261.79999999999995" as="targetPoint" />
          </mxGeometry>
        </mxCell>
        <mxCell id="Qj9OVGJg4EnvaJ57wK5q-24" style="edgeStyle=orthogonalEdgeStyle;rounded=0;orthogonalLoop=1;jettySize=auto;html=1;entryX=1.005;entryY=0.351;entryDx=0;entryDy=0;entryPerimeter=0;strokeColor=#FF0000;exitX=0.141;exitY=0.739;exitDx=0;exitDy=0;exitPerimeter=0;" parent="1" source="Qj9OVGJg4EnvaJ57wK5q-13" target="Qj9OVGJg4EnvaJ57wK5q-19" edge="1">
          <mxGeometry relative="1" as="geometry">
            <Array as="points">
              <mxPoint x="601" y="-7" />
            </Array>
          </mxGeometry>
        </mxCell>
        <mxCell id="Qj9OVGJg4EnvaJ57wK5q-105" style="edgeStyle=orthogonalEdgeStyle;rounded=0;orthogonalLoop=1;jettySize=auto;html=1;strokeColor=#97D077;strokeWidth=3;" parent="1" source="Qj9OVGJg4EnvaJ57wK5q-26" target="Qj9OVGJg4EnvaJ57wK5q-6" edge="1">
          <mxGeometry relative="1" as="geometry">
            <Array as="points">
              <mxPoint x="-220" y="740" />
              <mxPoint x="-220" y="-47" />
            </Array>
          </mxGeometry>
        </mxCell>
        <mxCell id="Qj9OVGJg4EnvaJ57wK5q-129" style="edgeStyle=orthogonalEdgeStyle;rounded=0;orthogonalLoop=1;jettySize=auto;html=1;exitX=0.015;exitY=0.982;exitDx=0;exitDy=0;exitPerimeter=0;strokeColor=#005700;strokeWidth=3;" parent="1" source="Qj9OVGJg4EnvaJ57wK5q-26" target="Qj9OVGJg4EnvaJ57wK5q-5" edge="1">
          <mxGeometry relative="1" as="geometry">
            <mxPoint x="-84.00117647058806" y="738" as="sourcePoint" />
            <mxPoint x="-90.06" y="50" as="targetPoint" />
            <Array as="points">
              <mxPoint x="-250" y="769" />
              <mxPoint x="-250" y="50" />
            </Array>
          </mxGeometry>
        </mxCell>
        <mxCell id="Qj9OVGJg4EnvaJ57wK5q-26" value="Azure Container Apps&lt;br&gt;Frontend for Web UI" style="image;aspect=fixed;html=1;points=[];align=center;fontSize=12;image=img/lib/azure2/compute/Container_Services_Deprecated.svg;" parent="1" vertex="1">
          <mxGeometry x="122" y="710" width="68" height="60" as="geometry" />
        </mxCell>
        <mxCell id="Qj9OVGJg4EnvaJ57wK5q-27" value="Azure Container Apps 1&lt;br&gt;Backend TASK 1" style="image;aspect=fixed;html=1;points=[];align=center;fontSize=12;image=img/lib/azure2/compute/Container_Services_Deprecated.svg;" parent="1" vertex="1">
          <mxGeometry x="280" y="640" width="68" height="60" as="geometry" />
        </mxCell>
        <mxCell id="Qj9OVGJg4EnvaJ57wK5q-28" value="&lt;b&gt;&lt;font style=&quot;font-size: 14px;&quot;&gt;Subscription&lt;/font&gt;&lt;/b&gt;" style="image;aspect=fixed;html=1;points=[];align=center;fontSize=12;image=img/lib/azure2/azure_stack/User_Subscriptions.svg;" parent="1" vertex="1">
          <mxGeometry x="-50" y="310" width="68" height="66" as="geometry" />
        </mxCell>
        <mxCell id="Qj9OVGJg4EnvaJ57wK5q-32" value="&lt;b&gt;VNET&lt;/b&gt;" style="verticalLabelPosition=bottom;html=1;verticalAlign=top;align=center;strokeColor=none;fillColor=#00BEF2;shape=mxgraph.azure.virtual_network;pointerEvents=1;" parent="1" vertex="1">
          <mxGeometry x="283" y="548.16" width="57" height="27.5" as="geometry" />
        </mxCell>
        <mxCell id="Qj9OVGJg4EnvaJ57wK5q-33" value="&lt;b&gt;NSG&lt;/b&gt;" style="image;aspect=fixed;html=1;points=[];align=center;fontSize=12;image=img/lib/azure2/networking/Network_Security_Groups.svg;" parent="1" vertex="1">
          <mxGeometry x="348" y="544.8199999999999" width="32.94" height="40" as="geometry" />
        </mxCell>
        <mxCell id="Qj9OVGJg4EnvaJ57wK5q-34" value="&lt;b&gt;SUBNET&lt;/b&gt;" style="image;aspect=fixed;html=1;points=[];align=center;fontSize=12;image=img/lib/azure2/networking/Subnet.svg;" parent="1" vertex="1">
          <mxGeometry x="110" y="820" width="48" height="28.74" as="geometry" />
        </mxCell>
        <mxCell id="Qj9OVGJg4EnvaJ57wK5q-71" style="edgeStyle=orthogonalEdgeStyle;rounded=0;orthogonalLoop=1;jettySize=auto;html=1;entryX=0.626;entryY=0.019;entryDx=0;entryDy=0;entryPerimeter=0;strokeColor=#97D077;strokeWidth=3;exitX=-0.007;exitY=0.324;exitDx=0;exitDy=0;exitPerimeter=0;" parent="1" source="17UivyfSJFZXzVtU6ymj-6" target="xfca3wbx28nJM9ixxqJP-1" edge="1">
          <mxGeometry relative="1" as="geometry">
            <mxPoint x="513" y="462.0344827586209" as="sourcePoint" />
            <Array as="points">
              <mxPoint x="50" y="452" />
            </Array>
          </mxGeometry>
        </mxCell>
        <mxCell id="Qj9OVGJg4EnvaJ57wK5q-128" style="edgeStyle=orthogonalEdgeStyle;rounded=0;orthogonalLoop=1;jettySize=auto;html=1;entryX=0.959;entryY=0.408;entryDx=0;entryDy=0;entryPerimeter=0;exitX=-0.008;exitY=0.712;exitDx=0;exitDy=0;exitPerimeter=0;strokeColor=#005700;strokeWidth=3;" parent="1" source="17UivyfSJFZXzVtU6ymj-6" target="xfca3wbx28nJM9ixxqJP-1" edge="1">
          <mxGeometry relative="1" as="geometry">
            <mxPoint x="539.7959999999998" y="478.212" as="sourcePoint" />
            <mxPoint x="78.33599999999979" y="680.9760000000001" as="targetPoint" />
            <Array as="points" />
          </mxGeometry>
        </mxCell>
        <mxCell id="Qj9OVGJg4EnvaJ57wK5q-36" value="Assets" style="childLayout=tableLayout;recursiveResize=0;strokeColor=#98bf21;fillColor=#A7C942;shadow=1;" parent="1" vertex="1">
          <mxGeometry x="-56.06" y="1330" width="490" height="358" as="geometry" />
        </mxCell>
        <mxCell id="Qj9OVGJg4EnvaJ57wK5q-37" style="shape=tableRow;horizontal=0;startSize=0;swimlaneHead=0;swimlaneBody=0;top=0;left=0;bottom=0;right=0;dropTarget=0;collapsible=0;recursiveResize=0;expand=0;fontStyle=0;strokeColor=inherit;fillColor=#ffffff;" parent="Qj9OVGJg4EnvaJ57wK5q-36" vertex="1">
          <mxGeometry width="490" height="62" as="geometry" />
        </mxCell>
        <mxCell id="Qj9OVGJg4EnvaJ57wK5q-38" value="Services" style="connectable=0;recursiveResize=0;strokeColor=inherit;fillColor=#A7C942;align=center;fontStyle=1;fontColor=#FFFFFF;html=1;" parent="Qj9OVGJg4EnvaJ57wK5q-37" vertex="1">
          <mxGeometry width="143" height="62" as="geometry">
            <mxRectangle width="143" height="62" as="alternateBounds" />
          </mxGeometry>
        </mxCell>
        <mxCell id="Qj9OVGJg4EnvaJ57wK5q-39" value="Numbers" style="connectable=0;recursiveResize=0;strokeColor=inherit;fillColor=#A7C942;align=center;fontStyle=1;fontColor=#FFFFFF;html=1;" parent="Qj9OVGJg4EnvaJ57wK5q-37" vertex="1">
          <mxGeometry x="143" width="144" height="62" as="geometry">
            <mxRectangle width="144" height="62" as="alternateBounds" />
          </mxGeometry>
        </mxCell>
        <mxCell id="Qj9OVGJg4EnvaJ57wK5q-40" value="Cost" style="connectable=0;recursiveResize=0;strokeColor=inherit;fillColor=#A7C942;align=center;fontStyle=1;fontColor=#FFFFFF;html=1;" parent="Qj9OVGJg4EnvaJ57wK5q-37" vertex="1">
          <mxGeometry x="287" width="203" height="62" as="geometry">
            <mxRectangle width="203" height="62" as="alternateBounds" />
          </mxGeometry>
        </mxCell>
        <mxCell id="Qj9OVGJg4EnvaJ57wK5q-41" value="" style="shape=tableRow;horizontal=0;startSize=0;swimlaneHead=0;swimlaneBody=0;top=0;left=0;bottom=0;right=0;dropTarget=0;collapsible=0;recursiveResize=0;expand=0;fontStyle=0;strokeColor=inherit;fillColor=#ffffff;" parent="Qj9OVGJg4EnvaJ57wK5q-36" vertex="1">
          <mxGeometry y="62" width="490" height="60" as="geometry" />
        </mxCell>
        <mxCell id="Qj9OVGJg4EnvaJ57wK5q-42" value="Azure Firewall" style="connectable=0;recursiveResize=0;strokeColor=inherit;fillColor=inherit;align=center;whiteSpace=wrap;html=1;" parent="Qj9OVGJg4EnvaJ57wK5q-41" vertex="1">
          <mxGeometry width="143" height="60" as="geometry">
            <mxRectangle width="143" height="60" as="alternateBounds" />
          </mxGeometry>
        </mxCell>
        <mxCell id="Qj9OVGJg4EnvaJ57wK5q-43" value="1" style="connectable=0;recursiveResize=0;strokeColor=inherit;fillColor=inherit;align=center;whiteSpace=wrap;html=1;" parent="Qj9OVGJg4EnvaJ57wK5q-41" vertex="1">
          <mxGeometry x="143" width="144" height="60" as="geometry">
            <mxRectangle width="144" height="60" as="alternateBounds" />
          </mxGeometry>
        </mxCell>
        <mxCell id="Qj9OVGJg4EnvaJ57wK5q-44" value="Value 3" style="connectable=0;recursiveResize=0;strokeColor=inherit;fillColor=inherit;align=center;whiteSpace=wrap;html=1;" parent="Qj9OVGJg4EnvaJ57wK5q-41" vertex="1">
          <mxGeometry x="287" width="203" height="60" as="geometry">
            <mxRectangle width="203" height="60" as="alternateBounds" />
          </mxGeometry>
        </mxCell>
        <mxCell id="Qj9OVGJg4EnvaJ57wK5q-45" value="" style="shape=tableRow;horizontal=0;startSize=0;swimlaneHead=0;swimlaneBody=0;top=0;left=0;bottom=0;right=0;dropTarget=0;collapsible=0;recursiveResize=0;expand=0;fontStyle=1;strokeColor=inherit;fillColor=#EAF2D3;" parent="Qj9OVGJg4EnvaJ57wK5q-36" vertex="1">
          <mxGeometry y="122" width="490" height="58" as="geometry" />
        </mxCell>
        <mxCell id="Qj9OVGJg4EnvaJ57wK5q-46" value="Virtual Network" style="connectable=0;recursiveResize=0;strokeColor=inherit;fillColor=inherit;whiteSpace=wrap;html=1;" parent="Qj9OVGJg4EnvaJ57wK5q-45" vertex="1">
          <mxGeometry width="143" height="58" as="geometry">
            <mxRectangle width="143" height="58" as="alternateBounds" />
          </mxGeometry>
        </mxCell>
        <mxCell id="Qj9OVGJg4EnvaJ57wK5q-47" value="1" style="connectable=0;recursiveResize=0;strokeColor=inherit;fillColor=inherit;whiteSpace=wrap;html=1;" parent="Qj9OVGJg4EnvaJ57wK5q-45" vertex="1">
          <mxGeometry x="143" width="144" height="58" as="geometry">
            <mxRectangle width="144" height="58" as="alternateBounds" />
          </mxGeometry>
        </mxCell>
        <mxCell id="Qj9OVGJg4EnvaJ57wK5q-48" value="Value 6" style="connectable=0;recursiveResize=0;strokeColor=inherit;fillColor=inherit;whiteSpace=wrap;html=1;" parent="Qj9OVGJg4EnvaJ57wK5q-45" vertex="1">
          <mxGeometry x="287" width="203" height="58" as="geometry">
            <mxRectangle width="203" height="58" as="alternateBounds" />
          </mxGeometry>
        </mxCell>
        <mxCell id="Qj9OVGJg4EnvaJ57wK5q-49" value="" style="shape=tableRow;horizontal=0;startSize=0;swimlaneHead=0;swimlaneBody=0;top=0;left=0;bottom=0;right=0;dropTarget=0;collapsible=0;recursiveResize=0;expand=0;fontStyle=0;strokeColor=inherit;fillColor=#ffffff;" parent="Qj9OVGJg4EnvaJ57wK5q-36" vertex="1">
          <mxGeometry y="180" width="490" height="62" as="geometry" />
        </mxCell>
        <mxCell id="Qj9OVGJg4EnvaJ57wK5q-50" value="Application Gateway" style="connectable=0;recursiveResize=0;strokeColor=inherit;fillColor=inherit;fontStyle=0;align=center;whiteSpace=wrap;html=1;" parent="Qj9OVGJg4EnvaJ57wK5q-49" vertex="1">
          <mxGeometry width="143" height="62" as="geometry">
            <mxRectangle width="143" height="62" as="alternateBounds" />
          </mxGeometry>
        </mxCell>
        <mxCell id="Qj9OVGJg4EnvaJ57wK5q-51" value="1" style="connectable=0;recursiveResize=0;strokeColor=inherit;fillColor=inherit;fontStyle=0;align=center;whiteSpace=wrap;html=1;" parent="Qj9OVGJg4EnvaJ57wK5q-49" vertex="1">
          <mxGeometry x="143" width="144" height="62" as="geometry">
            <mxRectangle width="144" height="62" as="alternateBounds" />
          </mxGeometry>
        </mxCell>
        <mxCell id="Qj9OVGJg4EnvaJ57wK5q-52" value="Value 9" style="connectable=0;recursiveResize=0;strokeColor=inherit;fillColor=inherit;fontStyle=0;align=center;whiteSpace=wrap;html=1;" parent="Qj9OVGJg4EnvaJ57wK5q-49" vertex="1">
          <mxGeometry x="287" width="203" height="62" as="geometry">
            <mxRectangle width="203" height="62" as="alternateBounds" />
          </mxGeometry>
        </mxCell>
        <mxCell id="Qj9OVGJg4EnvaJ57wK5q-53" value="" style="shape=tableRow;horizontal=0;startSize=0;swimlaneHead=0;swimlaneBody=0;top=0;left=0;bottom=0;right=0;dropTarget=0;collapsible=0;recursiveResize=0;expand=0;fontStyle=1;strokeColor=inherit;fillColor=#EAF2D3;" parent="Qj9OVGJg4EnvaJ57wK5q-36" vertex="1">
          <mxGeometry y="242" width="490" height="58" as="geometry" />
        </mxCell>
        <mxCell id="Qj9OVGJg4EnvaJ57wK5q-54" value="Azure Container Apps" style="connectable=0;recursiveResize=0;strokeColor=inherit;fillColor=inherit;whiteSpace=wrap;html=1;" parent="Qj9OVGJg4EnvaJ57wK5q-53" vertex="1">
          <mxGeometry width="143" height="58" as="geometry">
            <mxRectangle width="143" height="58" as="alternateBounds" />
          </mxGeometry>
        </mxCell>
        <mxCell id="Qj9OVGJg4EnvaJ57wK5q-55" value="6" style="connectable=0;recursiveResize=0;strokeColor=inherit;fillColor=inherit;whiteSpace=wrap;html=1;" parent="Qj9OVGJg4EnvaJ57wK5q-53" vertex="1">
          <mxGeometry x="143" width="144" height="58" as="geometry">
            <mxRectangle width="144" height="58" as="alternateBounds" />
          </mxGeometry>
        </mxCell>
        <mxCell id="Qj9OVGJg4EnvaJ57wK5q-56" value="Value 12" style="connectable=0;recursiveResize=0;strokeColor=inherit;fillColor=inherit;whiteSpace=wrap;html=1;" parent="Qj9OVGJg4EnvaJ57wK5q-53" vertex="1">
          <mxGeometry x="287" width="203" height="58" as="geometry">
            <mxRectangle width="203" height="58" as="alternateBounds" />
          </mxGeometry>
        </mxCell>
        <mxCell id="Qj9OVGJg4EnvaJ57wK5q-72" style="shape=tableRow;horizontal=0;startSize=0;swimlaneHead=0;swimlaneBody=0;top=0;left=0;bottom=0;right=0;dropTarget=0;collapsible=0;recursiveResize=0;expand=0;fontStyle=1;strokeColor=inherit;fillColor=#EAF2D3;" parent="Qj9OVGJg4EnvaJ57wK5q-36" vertex="1">
          <mxGeometry y="300" width="490" height="58" as="geometry" />
        </mxCell>
        <mxCell id="Qj9OVGJg4EnvaJ57wK5q-73" value="Cosmos DB" style="connectable=0;recursiveResize=0;strokeColor=inherit;fillColor=inherit;whiteSpace=wrap;html=1;" parent="Qj9OVGJg4EnvaJ57wK5q-72" vertex="1">
          <mxGeometry width="143" height="58" as="geometry">
            <mxRectangle width="143" height="58" as="alternateBounds" />
          </mxGeometry>
        </mxCell>
        <mxCell id="Qj9OVGJg4EnvaJ57wK5q-74" value="1" style="connectable=0;recursiveResize=0;strokeColor=inherit;fillColor=inherit;whiteSpace=wrap;html=1;" parent="Qj9OVGJg4EnvaJ57wK5q-72" vertex="1">
          <mxGeometry x="143" width="144" height="58" as="geometry">
            <mxRectangle width="144" height="58" as="alternateBounds" />
          </mxGeometry>
        </mxCell>
        <mxCell id="Qj9OVGJg4EnvaJ57wK5q-75" style="connectable=0;recursiveResize=0;strokeColor=inherit;fillColor=inherit;whiteSpace=wrap;html=1;" parent="Qj9OVGJg4EnvaJ57wK5q-72" vertex="1">
          <mxGeometry x="287" width="203" height="58" as="geometry">
            <mxRectangle width="203" height="58" as="alternateBounds" />
          </mxGeometry>
        </mxCell>
        <mxCell id="Qj9OVGJg4EnvaJ57wK5q-57" value="Azure Container Apps 2&lt;br&gt;Backend TASK 2" style="image;aspect=fixed;html=1;points=[];align=center;fontSize=12;image=img/lib/azure2/compute/Container_Services_Deprecated.svg;" parent="1" vertex="1">
          <mxGeometry x="280" y="780" width="68" height="60" as="geometry" />
        </mxCell>
        <mxCell id="Qj9OVGJg4EnvaJ57wK5q-59" value="No SQL DB" style="image;aspect=fixed;html=1;points=[];align=left;fontSize=12;image=img/lib/azure2/databases/Azure_Cosmos_DB.svg;labelPosition=right;verticalLabelPosition=middle;verticalAlign=middle;" parent="1" vertex="1">
          <mxGeometry x="513" y="702" width="68" height="68" as="geometry" />
        </mxCell>
        <mxCell id="Qj9OVGJg4EnvaJ57wK5q-62" style="edgeStyle=orthogonalEdgeStyle;rounded=0;orthogonalLoop=1;jettySize=auto;html=1;entryX=0.453;entryY=0.103;entryDx=0;entryDy=0;entryPerimeter=0;startArrow=classic;startFill=1;" parent="1" source="Qj9OVGJg4EnvaJ57wK5q-27" target="Qj9OVGJg4EnvaJ57wK5q-59" edge="1">
          <mxGeometry relative="1" as="geometry" />
        </mxCell>
        <mxCell id="Qj9OVGJg4EnvaJ57wK5q-63" style="edgeStyle=orthogonalEdgeStyle;rounded=0;orthogonalLoop=1;jettySize=auto;html=1;entryX=0.547;entryY=0.974;entryDx=0;entryDy=0;entryPerimeter=0;startArrow=classic;startFill=1;" parent="1" source="Qj9OVGJg4EnvaJ57wK5q-57" target="Qj9OVGJg4EnvaJ57wK5q-59" edge="1">
          <mxGeometry relative="1" as="geometry" />
        </mxCell>
        <mxCell id="Qj9OVGJg4EnvaJ57wK5q-66" value="&lt;font style=&quot;font-size: 21px;&quot;&gt;&lt;b&gt;AZURE TENANT&lt;/b&gt;&lt;/font&gt;" style="image;aspect=fixed;html=1;points=[];align=center;fontSize=12;image=img/lib/azure2/intune/Tenant_Status.svg;" parent="1" vertex="1">
          <mxGeometry x="1230" y="190" width="64" height="68" as="geometry" />
        </mxCell>
        <mxCell id="Qj9OVGJg4EnvaJ57wK5q-67" style="rounded=0;orthogonalLoop=1;jettySize=auto;html=1;entryX=0.013;entryY=0.47;entryDx=0;entryDy=0;entryPerimeter=0;startArrow=classic;startFill=1;strokeColor=#97D077;strokeWidth=3;" parent="1" edge="1">
          <mxGeometry relative="1" as="geometry">
            <mxPoint x="185" y="722.4522596969991" as="sourcePoint" />
            <mxPoint x="275.884" y="670.2000000000003" as="targetPoint" />
          </mxGeometry>
        </mxCell>
        <mxCell id="Qj9OVGJg4EnvaJ57wK5q-68" style="rounded=0;orthogonalLoop=1;jettySize=auto;html=1;entryX=0.013;entryY=0.727;entryDx=0;entryDy=0;entryPerimeter=0;startArrow=classic;startFill=1;strokeColor=#005700;strokeWidth=3;" parent="1" source="Qj9OVGJg4EnvaJ57wK5q-26" target="Qj9OVGJg4EnvaJ57wK5q-57" edge="1">
          <mxGeometry relative="1" as="geometry" />
        </mxCell>
        <mxCell id="Qj9OVGJg4EnvaJ57wK5q-77" value="" style="rounded=1;whiteSpace=wrap;html=1;fillColor=none;" parent="1" vertex="1">
          <mxGeometry x="630" y="536" width="580" height="400" as="geometry" />
        </mxCell>
        <mxCell id="Qj9OVGJg4EnvaJ57wK5q-78" value="Azure Container Apps&lt;br&gt;Frontend for Web UI" style="image;aspect=fixed;html=1;points=[];align=center;fontSize=12;image=img/lib/azure2/compute/Container_Services_Deprecated.svg;" parent="1" vertex="1">
          <mxGeometry x="910" y="730" width="68" height="60" as="geometry" />
        </mxCell>
        <mxCell id="Qj9OVGJg4EnvaJ57wK5q-79" value="Azure Container Apps 1&lt;br&gt;Backend&amp;nbsp;" style="image;aspect=fixed;html=1;points=[];align=center;fontSize=12;image=img/lib/azure2/compute/Container_Services_Deprecated.svg;" parent="1" vertex="1">
          <mxGeometry x="730" y="640" width="68" height="60" as="geometry" />
        </mxCell>
        <mxCell id="Qj9OVGJg4EnvaJ57wK5q-84" value="Azure Container Apps 2&lt;br&gt;Backend&amp;nbsp;" style="image;aspect=fixed;html=1;points=[];align=center;fontSize=12;image=img/lib/azure2/compute/Container_Services_Deprecated.svg;" parent="1" vertex="1">
          <mxGeometry x="730" y="780" width="68" height="60" as="geometry" />
        </mxCell>
        <mxCell id="Qj9OVGJg4EnvaJ57wK5q-85" style="rounded=0;orthogonalLoop=1;jettySize=auto;html=1;startArrow=classic;startFill=1;" parent="1" source="Qj9OVGJg4EnvaJ57wK5q-78" edge="1">
          <mxGeometry relative="1" as="geometry">
            <mxPoint x="924" y="728.4522596969991" as="sourcePoint" />
            <mxPoint x="810" y="680" as="targetPoint" />
          </mxGeometry>
        </mxCell>
        <mxCell id="Qj9OVGJg4EnvaJ57wK5q-86" style="rounded=0;orthogonalLoop=1;jettySize=auto;html=1;startArrow=classic;startFill=1;" parent="1" source="Qj9OVGJg4EnvaJ57wK5q-78" edge="1">
          <mxGeometry relative="1" as="geometry">
            <mxPoint x="800" y="820" as="targetPoint" />
          </mxGeometry>
        </mxCell>
        <mxCell id="Qj9OVGJg4EnvaJ57wK5q-88" value="&lt;b&gt;REGION 2 [SECONDARY]&lt;/b&gt;" style="points=[];aspect=fixed;html=1;align=center;shadow=0;dashed=0;fillColor=#FF6A00;strokeColor=none;shape=mxgraph.alibaba_cloud.region;labelPosition=center;verticalLabelPosition=bottom;verticalAlign=top;" parent="1" vertex="1">
          <mxGeometry x="870" y="539" width="40" height="45.82" as="geometry" />
        </mxCell>
        <mxCell id="Qj9OVGJg4EnvaJ57wK5q-90" value="&lt;b&gt;REGION 1 [PRIMARY]&lt;/b&gt;" style="points=[];aspect=fixed;html=1;align=center;shadow=0;dashed=0;fillColor=#FF6A00;strokeColor=none;shape=mxgraph.alibaba_cloud.region;labelPosition=center;verticalLabelPosition=bottom;verticalAlign=top;" parent="1" vertex="1">
          <mxGeometry x="-50" y="538.85" width="40" height="45.82" as="geometry" />
        </mxCell>
        <mxCell id="Qj9OVGJg4EnvaJ57wK5q-91" style="edgeStyle=orthogonalEdgeStyle;rounded=0;orthogonalLoop=1;jettySize=auto;html=1;entryX=0.721;entryY=0.15;entryDx=0;entryDy=0;entryPerimeter=0;startArrow=classic;startFill=1;" parent="1" source="Qj9OVGJg4EnvaJ57wK5q-79" target="Qj9OVGJg4EnvaJ57wK5q-59" edge="1">
          <mxGeometry relative="1" as="geometry" />
        </mxCell>
        <mxCell id="Qj9OVGJg4EnvaJ57wK5q-92" style="edgeStyle=orthogonalEdgeStyle;rounded=0;orthogonalLoop=1;jettySize=auto;html=1;entryX=0.799;entryY=0.934;entryDx=0;entryDy=0;entryPerimeter=0;startArrow=classic;startFill=1;" parent="1" source="Qj9OVGJg4EnvaJ57wK5q-84" target="Qj9OVGJg4EnvaJ57wK5q-59" edge="1">
          <mxGeometry relative="1" as="geometry" />
        </mxCell>
        <mxCell id="Qj9OVGJg4EnvaJ57wK5q-94" value="" style="endArrow=classic;html=1;rounded=0;" parent="1" edge="1">
          <mxGeometry relative="1" as="geometry">
            <mxPoint x="340" y="-197" as="sourcePoint" />
            <mxPoint x="340" y="-47" as="targetPoint" />
          </mxGeometry>
        </mxCell>
        <mxCell id="Qj9OVGJg4EnvaJ57wK5q-95" value="" style="shape=message;html=1;outlineConnect=0;" parent="Qj9OVGJg4EnvaJ57wK5q-94" vertex="1">
          <mxGeometry width="20" height="14" relative="1" as="geometry">
            <mxPoint x="-10" y="-7" as="offset" />
          </mxGeometry>
        </mxCell>
        <mxCell id="Qj9OVGJg4EnvaJ57wK5q-99" value="Return Form" style="swimlane;fontStyle=0;childLayout=stackLayout;horizontal=1;startSize=30;horizontalStack=0;resizeParent=1;resizeParentMax=0;resizeLast=0;collapsible=1;marginBottom=0;whiteSpace=wrap;html=1;" parent="1" vertex="1">
          <mxGeometry x="-164" y="-271" width="157" height="90" as="geometry" />
        </mxCell>
        <mxCell id="Qj9OVGJg4EnvaJ57wK5q-101" value="Unique URL" style="text;strokeColor=none;fillColor=none;align=left;verticalAlign=middle;spacingLeft=4;spacingRight=4;overflow=hidden;points=[[0,0.5],[1,0.5]];portConstraint=eastwest;rotatable=0;whiteSpace=wrap;html=1;" parent="Qj9OVGJg4EnvaJ57wK5q-99" vertex="1">
          <mxGeometry y="30" width="157" height="30" as="geometry" />
        </mxCell>
        <mxCell id="Qj9OVGJg4EnvaJ57wK5q-102" value="&amp;nbsp;PIN" style="text;strokeColor=none;fillColor=none;align=left;verticalAlign=middle;spacingLeft=4;spacingRight=4;overflow=hidden;points=[[0,0.5],[1,0.5]];portConstraint=eastwest;rotatable=0;whiteSpace=wrap;html=1;" parent="Qj9OVGJg4EnvaJ57wK5q-99" vertex="1">
          <mxGeometry y="60" width="157" height="30" as="geometry" />
        </mxCell>
        <mxCell id="Qj9OVGJg4EnvaJ57wK5q-103" style="edgeStyle=orthogonalEdgeStyle;rounded=0;orthogonalLoop=1;jettySize=auto;html=1;dashed=1;dashPattern=8 8;entryX=0.469;entryY=0.019;entryDx=0;entryDy=0;entryPerimeter=0;exitX=0.985;exitY=0.487;exitDx=0;exitDy=0;exitPerimeter=0;" parent="1" source="17UivyfSJFZXzVtU6ymj-6" edge="1">
          <mxGeometry relative="1" as="geometry">
            <mxPoint x="577.0000000000005" y="462.0344827586209" as="sourcePoint" />
            <mxPoint x="1008.0160000000001" y="637.2159999999999" as="targetPoint" />
          </mxGeometry>
        </mxCell>
        <mxCell id="Qj9OVGJg4EnvaJ57wK5q-107" value="Input Form" style="swimlane;fontStyle=0;childLayout=stackLayout;horizontal=1;startSize=30;horizontalStack=0;resizeParent=1;resizeParentMax=0;resizeLast=0;collapsible=1;marginBottom=0;whiteSpace=wrap;html=1;" parent="1" vertex="1">
          <mxGeometry x="290" y="-280" width="140" height="90" as="geometry" />
        </mxCell>
        <mxCell id="Qj9OVGJg4EnvaJ57wK5q-108" value="Secret Name" style="text;strokeColor=none;fillColor=none;align=left;verticalAlign=middle;spacingLeft=4;spacingRight=4;overflow=hidden;points=[[0,0.5],[1,0.5]];portConstraint=eastwest;rotatable=0;whiteSpace=wrap;html=1;" parent="Qj9OVGJg4EnvaJ57wK5q-107" vertex="1">
          <mxGeometry y="30" width="140" height="30" as="geometry" />
        </mxCell>
        <mxCell id="Qj9OVGJg4EnvaJ57wK5q-109" value="Expiry Time" style="text;strokeColor=none;fillColor=none;align=left;verticalAlign=middle;spacingLeft=4;spacingRight=4;overflow=hidden;points=[[0,0.5],[1,0.5]];portConstraint=eastwest;rotatable=0;whiteSpace=wrap;html=1;" parent="Qj9OVGJg4EnvaJ57wK5q-107" vertex="1">
          <mxGeometry y="60" width="140" height="30" as="geometry" />
        </mxCell>
        <mxCell id="Qj9OVGJg4EnvaJ57wK5q-111" value="" style="endArrow=classic;html=1;rounded=0;entryX=0.34;entryY=1.072;entryDx=0;entryDy=0;entryPerimeter=0;" parent="1" target="Qj9OVGJg4EnvaJ57wK5q-102" edge="1">
          <mxGeometry relative="1" as="geometry">
            <mxPoint x="-110" y="-50" as="sourcePoint" />
            <mxPoint x="350" y="-37" as="targetPoint" />
          </mxGeometry>
        </mxCell>
        <mxCell id="Qj9OVGJg4EnvaJ57wK5q-112" value="" style="shape=message;html=1;outlineConnect=0;" parent="Qj9OVGJg4EnvaJ57wK5q-111" vertex="1">
          <mxGeometry width="20" height="14" relative="1" as="geometry">
            <mxPoint x="-10" y="-7" as="offset" />
          </mxGeometry>
        </mxCell>
        <mxCell id="Qj9OVGJg4EnvaJ57wK5q-113" style="edgeStyle=orthogonalEdgeStyle;rounded=0;orthogonalLoop=1;jettySize=auto;html=1;entryX=0.098;entryY=0.454;entryDx=0;entryDy=0;entryPerimeter=0;fillColor=#008a00;strokeColor=#005700;strokeWidth=3;" parent="1" edge="1">
          <mxGeometry relative="1" as="geometry">
            <mxPoint x="219.23000000000025" y="22.5" as="sourcePoint" />
            <mxPoint x="509.78" y="313.9399999999998" as="targetPoint" />
          </mxGeometry>
        </mxCell>
        <mxCell id="Qj9OVGJg4EnvaJ57wK5q-123" value="" style="edgeStyle=orthogonalEdgeStyle;rounded=0;orthogonalLoop=1;jettySize=auto;html=1;strokeColor=#97D077;strokeWidth=3;fontSize=9;" parent="1" source="Qj9OVGJg4EnvaJ57wK5q-6" target="Qj9OVGJg4EnvaJ57wK5q-116" edge="1">
          <mxGeometry relative="1" as="geometry">
            <mxPoint x="130" y="-47" as="sourcePoint" />
            <mxPoint x="530" y="280" as="targetPoint" />
            <Array as="points" />
          </mxGeometry>
        </mxCell>
        <mxCell id="Qj9OVGJg4EnvaJ57wK5q-116" value="1" style="ellipse;whiteSpace=wrap;html=1;aspect=fixed;rotation=0;gradientColor=#223548;strokeColor=none;gradientDirection=east;fillColor=#5b738b;rounded=0;pointerEvents=0;fontFamily=Helvetica;fontSize=16;fontColor=#FFFFFF;spacingTop=4;spacingBottom=4;spacingLeft=4;spacingRight=4;points=[];fontStyle=1" parent="1" vertex="1">
          <mxGeometry x="140" y="-80" width="30" height="30" as="geometry" />
        </mxCell>
        <mxCell id="Qj9OVGJg4EnvaJ57wK5q-130" value="Input Form" style="swimlane;fontStyle=0;childLayout=stackLayout;horizontal=1;startSize=30;horizontalStack=0;resizeParent=1;resizeParentMax=0;resizeLast=0;collapsible=1;marginBottom=0;whiteSpace=wrap;html=1;" parent="1" vertex="1">
          <mxGeometry x="129.5" y="-280" width="157" height="90" as="geometry" />
        </mxCell>
        <mxCell id="Qj9OVGJg4EnvaJ57wK5q-131" value="Unique URL" style="text;strokeColor=none;fillColor=none;align=left;verticalAlign=middle;spacingLeft=4;spacingRight=4;overflow=hidden;points=[[0,0.5],[1,0.5]];portConstraint=eastwest;rotatable=0;whiteSpace=wrap;html=1;" parent="Qj9OVGJg4EnvaJ57wK5q-130" vertex="1">
          <mxGeometry y="30" width="157" height="30" as="geometry" />
        </mxCell>
        <mxCell id="Qj9OVGJg4EnvaJ57wK5q-132" value="&amp;nbsp;PIN" style="text;strokeColor=none;fillColor=none;align=left;verticalAlign=middle;spacingLeft=4;spacingRight=4;overflow=hidden;points=[[0,0.5],[1,0.5]];portConstraint=eastwest;rotatable=0;whiteSpace=wrap;html=1;" parent="Qj9OVGJg4EnvaJ57wK5q-130" vertex="1">
          <mxGeometry y="60" width="157" height="30" as="geometry" />
        </mxCell>
        <mxCell id="Qj9OVGJg4EnvaJ57wK5q-133" value="" style="endArrow=classic;html=1;rounded=0;exitX=0.45;exitY=1.07;exitDx=0;exitDy=0;exitPerimeter=0;" parent="1" source="Qj9OVGJg4EnvaJ57wK5q-132" edge="1">
          <mxGeometry relative="1" as="geometry">
            <mxPoint x="310" y="20" as="sourcePoint" />
            <mxPoint x="300" y="22.13330078125" as="targetPoint" />
          </mxGeometry>
        </mxCell>
        <mxCell id="Qj9OVGJg4EnvaJ57wK5q-134" value="" style="shape=message;html=1;outlineConnect=0;" parent="Qj9OVGJg4EnvaJ57wK5q-133" vertex="1">
          <mxGeometry width="20" height="14" relative="1" as="geometry">
            <mxPoint x="-10" y="-7" as="offset" />
          </mxGeometry>
        </mxCell>
        <mxCell id="Qj9OVGJg4EnvaJ57wK5q-136" value="Return Form" style="swimlane;fontStyle=0;childLayout=stackLayout;horizontal=1;startSize=30;horizontalStack=0;resizeParent=1;resizeParentMax=0;resizeLast=0;collapsible=1;marginBottom=0;whiteSpace=wrap;html=1;" parent="1" vertex="1">
          <mxGeometry x="-310" y="-170" width="157" height="60" as="geometry" />
        </mxCell>
        <mxCell id="Qj9OVGJg4EnvaJ57wK5q-138" value="Secret" style="text;strokeColor=none;fillColor=none;align=left;verticalAlign=middle;spacingLeft=4;spacingRight=4;overflow=hidden;points=[[0,0.5],[1,0.5]];portConstraint=eastwest;rotatable=0;whiteSpace=wrap;html=1;" parent="Qj9OVGJg4EnvaJ57wK5q-136" vertex="1">
          <mxGeometry y="30" width="157" height="30" as="geometry" />
        </mxCell>
        <mxCell id="Qj9OVGJg4EnvaJ57wK5q-140" value="" style="endArrow=classic;html=1;rounded=0;entryX=0.474;entryY=1.141;entryDx=0;entryDy=0;entryPerimeter=0;" parent="1" target="Qj9OVGJg4EnvaJ57wK5q-138" edge="1">
          <mxGeometry relative="1" as="geometry">
            <mxPoint x="-236" y="50" as="sourcePoint" />
            <mxPoint x="-101" y="-169" as="targetPoint" />
          </mxGeometry>
        </mxCell>
        <mxCell id="Qj9OVGJg4EnvaJ57wK5q-141" value="" style="shape=message;html=1;outlineConnect=0;" parent="Qj9OVGJg4EnvaJ57wK5q-140" vertex="1">
          <mxGeometry width="20" height="14" relative="1" as="geometry">
            <mxPoint x="-10" y="-7" as="offset" />
          </mxGeometry>
        </mxCell>
        <mxCell id="Qj9OVGJg4EnvaJ57wK5q-143" value="2" style="ellipse;whiteSpace=wrap;html=1;aspect=fixed;rotation=0;gradientColor=#223548;strokeColor=none;gradientDirection=east;fillColor=#5b738b;rounded=0;pointerEvents=0;fontFamily=Helvetica;fontSize=16;fontColor=#FFFFFF;spacingTop=4;spacingBottom=4;spacingLeft=4;spacingRight=4;points=[];fontStyle=1" parent="1" vertex="1">
          <mxGeometry x="217" y="700" width="30" height="30" as="geometry" />
        </mxCell>
        <mxCell id="Qj9OVGJg4EnvaJ57wK5q-145" value="3" style="ellipse;whiteSpace=wrap;html=1;aspect=fixed;rotation=0;gradientColor=#223548;strokeColor=none;gradientDirection=east;fillColor=#5b738b;rounded=0;pointerEvents=0;fontFamily=Helvetica;fontSize=16;fontColor=#FFFFFF;spacingTop=4;spacingBottom=4;spacingLeft=4;spacingRight=4;points=[];fontStyle=1" parent="1" vertex="1">
          <mxGeometry x="-86.06" y="-90" width="30" height="30" as="geometry" />
        </mxCell>
        <mxCell id="Qj9OVGJg4EnvaJ57wK5q-150" value="5" style="ellipse;whiteSpace=wrap;html=1;aspect=fixed;rotation=0;gradientColor=#223548;strokeColor=none;gradientDirection=east;fillColor=#5b738b;rounded=0;pointerEvents=0;fontFamily=Helvetica;fontSize=16;fontColor=#FFFFFF;spacingTop=4;spacingBottom=4;spacingLeft=4;spacingRight=4;points=[];fontStyle=1" parent="1" vertex="1">
          <mxGeometry x="309" y="-10" width="30" height="30" as="geometry" />
        </mxCell>
        <mxCell id="Qj9OVGJg4EnvaJ57wK5q-151" value="6" style="ellipse;whiteSpace=wrap;html=1;aspect=fixed;rotation=0;gradientColor=#223548;strokeColor=none;gradientDirection=east;fillColor=#5b738b;rounded=0;pointerEvents=0;fontFamily=Helvetica;fontSize=16;fontColor=#FFFFFF;spacingTop=4;spacingBottom=4;spacingLeft=4;spacingRight=4;points=[];fontStyle=1" parent="1" vertex="1">
          <mxGeometry x="230" y="760" width="30" height="30" as="geometry" />
        </mxCell>
        <mxCell id="Qj9OVGJg4EnvaJ57wK5q-152" value="7" style="ellipse;whiteSpace=wrap;html=1;aspect=fixed;rotation=0;gradientColor=#223548;strokeColor=none;gradientDirection=east;fillColor=#5b738b;rounded=0;pointerEvents=0;fontFamily=Helvetica;fontSize=16;fontColor=#FFFFFF;spacingTop=4;spacingBottom=4;spacingLeft=4;spacingRight=4;points=[];fontStyle=1" parent="1" vertex="1">
          <mxGeometry x="-290" y="10" width="30" height="30" as="geometry" />
        </mxCell>
        <mxCell id="17UivyfSJFZXzVtU6ymj-1" value="&lt;b&gt;VNET&lt;/b&gt;" style="verticalLabelPosition=bottom;html=1;verticalAlign=top;align=center;strokeColor=none;fillColor=#00BEF2;shape=mxgraph.azure.virtual_network;pointerEvents=1;" parent="1" vertex="1">
          <mxGeometry x="1060" y="551.5" width="57" height="27.5" as="geometry" />
        </mxCell>
        <mxCell id="17UivyfSJFZXzVtU6ymj-2" value="&lt;b&gt;NSG&lt;/b&gt;" style="image;aspect=fixed;html=1;points=[];align=center;fontSize=12;image=img/lib/azure2/networking/Network_Security_Groups.svg;" parent="1" vertex="1">
          <mxGeometry x="1125" y="548.16" width="32.94" height="40" as="geometry" />
        </mxCell>
        <mxCell id="17UivyfSJFZXzVtU6ymj-3" value="&lt;b&gt;SUBNET&lt;/b&gt;" style="image;aspect=fixed;html=1;points=[];align=center;fontSize=12;image=img/lib/azure2/networking/Subnet.svg;" parent="1" vertex="1">
          <mxGeometry x="920" y="830" width="48" height="28.74" as="geometry" />
        </mxCell>
        <mxCell id="17UivyfSJFZXzVtU6ymj-5" value="NW: Outboud Traffice Response: 100KB * 10000 Connection per day&lt;br&gt;Storage: 100 B * 10000 Records per day" style="text;html=1;align=center;verticalAlign=middle;whiteSpace=wrap;rounded=0;" parent="1" vertex="1">
          <mxGeometry x="750" y="1330" width="460" height="230" as="geometry" />
        </mxCell>
        <mxCell id="17UivyfSJFZXzVtU6ymj-6" value="Traffic Manager" style="image;aspect=fixed;html=1;points=[];align=center;fontSize=12;image=img/lib/azure2/networking/Traffic_Manager_Profiles.svg;" parent="1" vertex="1">
          <mxGeometry x="517" y="430" width="68" height="68" as="geometry" />
        </mxCell>
        <mxCell id="17UivyfSJFZXzVtU6ymj-9" style="edgeStyle=orthogonalEdgeStyle;rounded=0;orthogonalLoop=1;jettySize=auto;html=1;entryX=1.019;entryY=0.476;entryDx=0;entryDy=0;entryPerimeter=0;dashed=1;dashPattern=8 8;" parent="1" target="Qj9OVGJg4EnvaJ57wK5q-78" edge="1">
          <mxGeometry relative="1" as="geometry">
            <Array as="points">
              <mxPoint x="1010" y="759" />
            </Array>
            <mxPoint x="1010" y="700" as="sourcePoint" />
          </mxGeometry>
        </mxCell>
        <mxCell id="17UivyfSJFZXzVtU6ymj-10" style="rounded=0;orthogonalLoop=1;jettySize=auto;html=1;strokeColor=#97D077;strokeWidth=3;fontSize=9;entryX=0.789;entryY=0.069;entryDx=0;entryDy=0;entryPerimeter=0;exitX=0.738;exitY=0.978;exitDx=0;exitDy=0;exitPerimeter=0;" parent="1" source="Qj9OVGJg4EnvaJ57wK5q-19" target="17UivyfSJFZXzVtU6ymj-6" edge="1">
          <mxGeometry relative="1" as="geometry">
            <mxPoint x="173" y="126" as="sourcePoint" />
            <mxPoint x="548" y="426" as="targetPoint" />
          </mxGeometry>
        </mxCell>
        <mxCell id="17UivyfSJFZXzVtU6ymj-12" style="rounded=0;orthogonalLoop=1;jettySize=auto;html=1;strokeColor=#005700;strokeWidth=3;fontSize=9;entryX=0.301;entryY=0.007;entryDx=0;entryDy=0;entryPerimeter=0;exitX=0.441;exitY=0.994;exitDx=0;exitDy=0;exitPerimeter=0;" parent="1" source="Qj9OVGJg4EnvaJ57wK5q-19" target="17UivyfSJFZXzVtU6ymj-6" edge="1">
          <mxGeometry relative="1" as="geometry">
            <mxPoint x="581" y="382" as="sourcePoint" />
            <mxPoint x="581" y="445" as="targetPoint" />
          </mxGeometry>
        </mxCell>
        <mxCell id="17UivyfSJFZXzVtU6ymj-13" style="rounded=0;orthogonalLoop=1;jettySize=auto;html=1;entryX=0.018;entryY=0.102;entryDx=0;entryDy=0;entryPerimeter=0;startArrow=none;startFill=0;strokeColor=#97D077;strokeWidth=3;exitX=0.788;exitY=0.834;exitDx=0;exitDy=0;exitPerimeter=0;" parent="1" source="xfca3wbx28nJM9ixxqJP-1" target="Qj9OVGJg4EnvaJ57wK5q-26" edge="1">
          <mxGeometry relative="1" as="geometry">
            <mxPoint x="49.02399999999989" y="715.6640000000002" as="sourcePoint" />
            <mxPoint x="285.884" y="680.2000000000003" as="targetPoint" />
          </mxGeometry>
        </mxCell>
        <mxCell id="17UivyfSJFZXzVtU6ymj-14" style="rounded=0;orthogonalLoop=1;jettySize=auto;html=1;entryX=0.508;entryY=-0.053;entryDx=0;entryDy=0;entryPerimeter=0;startArrow=none;startFill=0;strokeColor=#005700;strokeWidth=3;edgeStyle=orthogonalEdgeStyle;exitX=0.939;exitY=0.403;exitDx=0;exitDy=0;exitPerimeter=0;" parent="1" edge="1" source="xfca3wbx28nJM9ixxqJP-1">
          <mxGeometry relative="1" as="geometry">
            <mxPoint x="80" y="680" as="sourcePoint" />
            <mxPoint x="148.54399999999987" y="707.8200000000002" as="targetPoint" />
            <Array as="points">
              <mxPoint x="73" y="684" />
              <mxPoint x="73" y="680" />
              <mxPoint x="149" y="680" />
            </Array>
          </mxGeometry>
        </mxCell>
        <mxCell id="xfca3wbx28nJM9ixxqJP-1" value="&lt;b&gt;Application&amp;nbsp;&lt;/b&gt;&lt;div&gt;&lt;b&gt;Gateway&amp;nbsp;&lt;/b&gt;&lt;div&gt;&lt;b&gt;for Containers&lt;/b&gt;&lt;/div&gt;&lt;/div&gt;" style="image;aspect=fixed;html=1;points=[];align=right;fontSize=12;image=img/lib/azure2/networking/Application_Gateway_Containers.svg;labelPosition=left;verticalLabelPosition=middle;verticalAlign=middle;" vertex="1" parent="1">
          <mxGeometry x="10" y="660" width="63.47" height="59.96" as="geometry" />
        </mxCell>
        <mxCell id="xfca3wbx28nJM9ixxqJP-2" value="&lt;b&gt;Application&amp;nbsp;&lt;/b&gt;&lt;div&gt;&lt;b&gt;Gateway&amp;nbsp;&lt;/b&gt;&lt;div&gt;&lt;b&gt;for Containers&lt;/b&gt;&lt;/div&gt;&lt;/div&gt;" style="image;aspect=fixed;html=1;points=[];align=left;fontSize=12;image=img/lib/azure2/networking/Application_Gateway_Containers.svg;labelPosition=right;verticalLabelPosition=middle;verticalAlign=middle;" vertex="1" parent="1">
          <mxGeometry x="978" y="640" width="63.47" height="59.96" as="geometry" />
        </mxCell>
      </root>
    </mxGraphModel>
  </diagram>
</mxfile>
